<svg xmlns="http://www.w3.org/2000/svg" width="500" height="194.92" viewBox="0 0 500 194.92"><path d="M259.68,402.54c1.84.81,3.8.39,5.7.47,7.56.32,15.08,1,22.6,1.78a20.25,20.25,0,0,0,2.7.07,66.73,66.73,0,0,1,14.1,1.27,1.78,1.78,0,0,0,.78.08c2.83-.8,5.63.13,8.44.11a.84.84,0,0,1,.86.41c.32.79.85.74,1.54.56a8,8,0,0,1,4.53.19,2,2,0,0,1,1.46,2.21c-.23,2.58-.43,5.17-.74,7.75a95.14,95.14,0,0,0-.34,11.07c0,1.71.74,2.43,2.44,2.53,2.93.17,5.86.3,8.79.42a5.3,5.3,0,0,1,2,.4c.53.23,1,.5,1.49-.16a.44.44,0,0,1,.71,0c.5.68,1.16.49,1.82.41.4-.05.8,0,1.2-.05a2.34,2.34,0,0,0,2.41-2.27c.22-3.16.41-6.31.59-9.47.15-2.79.26-5.58.4-8.38.06-1.17.42-1.59,1.62-1.75a2.47,2.47,0,0,0,1.73-.85c.45-.57,1-.4,1.56-.19a2.74,2.74,0,0,0,2.48,0c.8-.42.52.74,1.1.93.45-1.72,1.77-1,2.86-.92,1.76.06,3.47.6,5.26.4.84-.1,1.17.55,1.24,1.27s.26.84.87.51.76.05.78.58c.07,2.75.57,5.52-.6,8.18a1.61,1.61,0,0,0-.14,1,3,3,0,0,1-.43,3.06.4.4,0,0,0,0,.37,5.66,5.66,0,0,1-.07,5.4,2.41,2.41,0,0,0,0,1.57c.11.69.24,1.38.32,2.07.08.85-.34,1.33-1.19,1.12s-1,.21-.8.91a9.22,9.22,0,0,0,.72,2.67c.3.46-.39.77-.72,1-.62.48-.6-.4-1-.51-.06,0-.14,0-.17.08-1.37,1.8-1.37,1.8-3-.36-.07.81-.14,1.52-.21,2.23,0,.41.23.52.57.52a5.65,5.65,0,0,0,3.11-.47c.75-.45,1.27-.11,1.61.6a3,3,0,0,1,.23,1.36c0,1.8,0,3.6-.15,5.39-.05.79-.32.92-1,.64-.49-.21-1-.37-1.5-.54-.27-.09-.57-.13-.64.24a.39.39,0,0,0,.46.5c1.29-.24,1.55.63,1.87,1.57.75,2.25.2,4.51.06,6.75-.29,4.44-.73,8.88-1.1,13.32a4.18,4.18,0,0,1-.4,1.84c-.11.2-.27.42-.54.36s-.29-.32-.27-.57c.05-.41.28-.9-.32-1.1a1.14,1.14,0,0,0-1.42.64,2.24,2.24,0,0,1-2.33,1.17c-1.29-.05-2.62.15-3.7-.84a.6.6,0,0,0-.46-.12c-1.31.32-2.67,0-4.2.39l8.56,1.8,42.34,8.88a10.76,10.76,0,0,1,1.35.36,2.69,2.69,0,0,1,1.75,3.82,1.64,1.64,0,0,0,.16,1.84,11.43,11.43,0,0,0,.65,1c2.42,2.63,2.63,5.72,1.88,9a5.87,5.87,0,0,0,.28,3.87c.66,1.47.2,3-.29,4.49a8.8,8.8,0,0,1-2.35,3.78c-.22.2-.5.37-.3.74a2.53,2.53,0,0,1-.28,2.46c-1.33,2.69-2.62,5.4-4,8.07a1.6,1.6,0,0,0,.16,1.91c1.47,2,2.9,4.06,4.34,6.1,1,1.41,1,1.81,0,3.21-.82,1.16-.75,1.32.71,1.49a5.56,5.56,0,0,0,1.78.09c.74-.16.58.86,1.28,1.09.4-1.72,1.27-3.33.68-5.2A9.78,9.78,0,0,1,404,526a28.57,28.57,0,0,0,1-5.09c0-.53.3-.71.79-.62l1.85.32c0-.58-.37-.61-.65-.75-1.62-.78-2.05-1.46-1.75-3.24a52.36,52.36,0,0,1,2.44-9.87,23.39,23.39,0,0,1,3.58-6.88,2.81,2.81,0,0,0,.31-3.11c-.29-.64-.11-.87.46-1.11a7.18,7.18,0,0,0,4.55-6.61c.06-1,.41-1.07,1.26-.89q24.52,5.47,49.06,10.9c.41.09,1.15,0,1.14.53s-.69.87-1.26.93a9.73,9.73,0,0,1-1.79,0c-.56,0-1-.24-1.11-.92s-.62-.67-1.13-.67-1.08,0-1.25.69a3.43,3.43,0,0,1-3.24,2.67,4.06,4.06,0,0,0-2.26,1.15,31.48,31.48,0,0,0-10,17.14c-.81,4-1.25,8.09-1.74,12.16a2.57,2.57,0,0,0,.67,2.1c1,1.1,1,1.64.18,2.86-.2.31-.41.61-.6.92a1.77,1.77,0,0,0,0,2.14c.51.73.21,1.24-.56,1.41a17.89,17.89,0,0,0-6.6,3.43c-.51.38-1,.65-1.62.3s-1.09,0-1.5.47a3.49,3.49,0,0,0-.71,1.31c-.18.57-.39.76-1,.34-1.06-.74-2.17-.4-3.25,0-.5.19-.46.63-.33,1,.32.91-.12,1.22-.93,1.31a7.14,7.14,0,0,0-.78.15c-1.43.28-1.8,1.31-.86,2.45.4.49.84.28,1.25,0a10.63,10.63,0,0,1,3-1.42c.37-.08.93-.53,1,.19s.41,1.37-.45,1.75c-1.15.52-1.25.72-.68,1.85a4.72,4.72,0,0,0,1.92,2c.41.24.83.29.78-.37-.14-2,1.65-2.41,2.82-3.31a1,1,0,0,1,1-.06,6,6,0,0,1,3.14,2.35c.49.77.32,1.05-.58,1.16a5,5,0,0,0-2.38.66c-.91.65-.91,1.35,0,2a2.08,2.08,0,0,0,2.75-.09,4.14,4.14,0,0,0,1.34-1.83c.26-.68.5-1.38.69-2.08s.63-.73,1.16-.68.55.49.55.9c0,2.2,0,4.39,0,6.59,0,.29-.13.68.16.83s.61-.16.86-.35c.76-.58.59-1.38.38-2.11a1.24,1.24,0,0,1,.62-1.65c1.2-.72,2.35-1.52,3.5-2.32.53-.36.81-.28,1,.36a4.65,4.65,0,0,0,4.94,3.64c1.67,0,3.22.37,3.66,2.37.09.37.35.45.7.29a5.51,5.51,0,0,1,4.38.09,13.8,13.8,0,0,0,7.29.4,2.28,2.28,0,0,1,1.37.09,2.68,2.68,0,0,0,3.48-.8c1.38-1.5,1.09-1.27,2.67-.33,1,.58,1,.59,1.16-.57.59-4.06,1.66-3.93,4.59-3.9,2.66,0,2.48.46,2.34-2.36-.1-2,.33-3.55,2.16-4.54a1.07,1.07,0,0,0,.58-1.34,2.61,2.61,0,0,1,.24-1.84c.83-1.93,1.63-3.87,2.48-5.79a2,2,0,0,0,0-1.81,5.28,5.28,0,0,1-.05-4.45,1.45,1.45,0,0,0,0-1.24,5.2,5.2,0,0,1-.09-4.18,1.83,1.83,0,0,0,0-1.52,5,5,0,0,1-.09-3.61,3.75,3.75,0,0,0,0-2.15,93.19,93.19,0,0,0-6.35-16.79,2.29,2.29,0,0,0-1.31-1.28,2.88,2.88,0,0,1-1.68-2.53c-.06-.4.09-.66.54-.61,1.08.12,2.23,0,3.05,1a1.13,1.13,0,0,0,1,.26c.63-.06,1.26-.06,1.89-.14.86-.1,1.44.06,1.41,1.11a.61.61,0,0,0,.59.69c.45,0,1.14.24,1.3-.2.41-1.15,1.13-.64,1.77-.45q6.81,2,13.62,4c.64.18,1.28.38,1.93.5a7.89,7.89,0,0,1,5.38,3.65,2.74,2.74,0,0,0,2.2,1.35c4,.37,8,.77,12,1.17,1.65.17,2.48.23,2.57,2.19a3.68,3.68,0,0,0,.21.77c.24.92.71,1.28,1.74,1,1.36-.37,1.39-.3,1.76,1,.11.39.22.77.31,1.16.3,1.31,0,2-1.34,2.33a1.41,1.41,0,0,0-1.17,1.59c.08,2.13.16,4.26.21,6.39a103,103,0,0,1-.73,13.25c-.07.69-.09,1.39-.1,2.09a1.22,1.22,0,0,0,.74,1.3c.64.25.57.6.31,1.08-.41.73-.78,1.48-1.18,2.21a2.54,2.54,0,0,1-2.12,1.6c-.6,0-.53.29-.27.7,1.23,1.92,1.22,1.92-.21,3.64-.15.17-.29.36-.45.53-.76.88-.76.88.36,1.16.41.1.78.21.84.72a1.17,1.17,0,0,1-.41,1.16,2.25,2.25,0,0,1-.62.31c-1.33.5-1.8,1.29-1.22,2.53a4.42,4.42,0,0,1,.09,3.18c-.89,3.44-3,6.16-5.25,8.74a50.1,50.1,0,0,1-5,4.86,3.84,3.84,0,0,1-.82.56c-.59.31-1,.28-1.05-.56s-.64-1.08-1.41-.87c-.38.1-.34.34-.3.61.3,1.84-.78,3.26-1.48,4.78-.31.68-1.06.45-1.61.26a7.64,7.64,0,0,1-1.4-.77c-.55-.34-.65-.13-.7.42-.07.71.54,1.54-.14,2.07a6.78,6.78,0,0,1-1.94.77l-3.32,1.09a2.87,2.87,0,0,1-2,0,1.22,1.22,0,0,0-1.56.47c-.56.66-1.18,1.27-1.74,1.93s-.79.54-1.32.08c-1.42-1.23-1.44-1.21-2.55.26a5.49,5.49,0,0,1-5.94,2,2.5,2.5,0,0,1-2-3.11,6.91,6.91,0,0,0-.07-2.68c-.09-.39-.08-1-.63-1s-.37.7-.33,1.08c.15,1.65.35,3.3.54,5s.18,1.69-1.47,1.66a16,16,0,0,0-6.11.73,1.63,1.63,0,0,1-1.61-.27c-1.23-.93-2.73-.67-4.12-.91a.53.53,0,0,0-.5.28,2.67,2.67,0,0,1-2.76,1c-2.91-.35-5.81-.74-8.72-1.11-.85-.12-1.71-.23-2.57-.33a3.57,3.57,0,0,0-2.81.73,2.9,2.9,0,0,1-2.76.45c-7.7-2.27-15.45-4.38-23-7.14a3.18,3.18,0,0,1-.8-.41,1.17,1.17,0,0,1,.28-2.14,3.91,3.91,0,0,0,1.2-.89c.21-.2.45-.42.31-.77a.89.89,0,0,0-.75-.58,2.4,2.4,0,0,0-1.27.19l-2.79,1.1c-1.07.41-1.18.33-1.2-.85s0-2.4,0-3.6a2.83,2.83,0,0,0-.15-.44c-.21.77-.36,1.34-.53,1.91-.52,1.67-1.39,1.91-2.54.64-2.13-2.34-4.2-4.73-6.3-7.1a1.88,1.88,0,0,1-.18-.24c-1-1.32-.92-1.41.63-1.83a1.58,1.58,0,0,0,.34-.19,2.19,2.19,0,0,0-1.29-.43,5,5,0,0,1-4.2-3.26,3.2,3.2,0,0,1,0-2.52c.87-1.94-.68-4.21-2.37-5-.77-.38-.91.14-1.06.69-.84,3-1.69,6-2.81,9-.87,2.3-1.72,4.62-2.61,6.91-.62,1.59-1,1.71-2.48.89-.57-.31-.73,0-.81.43-.14.72-.2,1.46-.36,2.17-.46,2.1-1.55,2.75-3.65,2.22a9.51,9.51,0,0,0-2.65-.46,2.62,2.62,0,0,0-2.74,2,5.83,5.83,0,0,0-.27,1.37,4.29,4.29,0,0,1-3,4.12,39.45,39.45,0,0,1-10.84,3c-1.16.11-2.32.3-3.37-.48a1.61,1.61,0,0,0-1.54-.09,8.26,8.26,0,0,1-5.11.14,3.14,3.14,0,0,0-1.58,0c-.95.2-1.95.07-2.86.2-1.85.27-3.67,0-5.44.07a66,66,0,0,1-8.66.32,54.88,54.88,0,0,0-6.78-.33,64.46,64.46,0,0,1-13-.39,3.55,3.55,0,0,0-1.77.13,2.78,2.78,0,0,1-2.77-.18,1,1,0,0,0-.87-.07c-5.46,1.28-11,.83-16.52.65-1.52-.05-3,0-4.52.07-4.57.08-9.13-.16-13.68-.41a10.1,10.1,0,0,1-4.2-1.23c-1.33-.7-1.54-1.57-.53-2.72.63-.72.94-1.23,0-2a2,2,0,0,1-.44-2.15,6.82,6.82,0,0,0,.34-2.65c-.06-.7.23-.84.82-.51.29.16.6.29.89.45.6.33,1.16.7,1.65-.21.2-.37.73-.15,1.1-.33.92-.45,1.89-.81,2.83-1.24.46-.2.87-.31,1.28.1s.88.15,1.31,0a39.89,39.89,0,0,1,7.42-2,11.75,11.75,0,0,1,5,.38c.44.14.87.31.81-.47,0-.48.24-.47.57-.28a4.82,4.82,0,0,0,3.68.42,3.2,3.2,0,0,1,1.47.15A1.88,1.88,0,0,0,313,579a.6.6,0,0,0-.12-.88c-.33-.29-.48,0-.61.24-.3.49-.73.38-1.15.28l-3.29-.84c-.36-.09-.77-.26-1,.13-.43.73-.84.54-1.35.11a1.8,1.8,0,0,0-2.12-.33c-.21.1-.54.24-.65.15-1-.71-1.71-.09-2.47.34-.61.36-1,.23-1.25-.4s-.6-.75-1.2-.34a2.87,2.87,0,0,1-2.33.16,4.67,4.67,0,0,0-3,.24.91.91,0,0,1-1.08-.28,5.09,5.09,0,0,0-3.79-1.43,5.87,5.87,0,0,1-1.47-.28,6,6,0,0,0-3.64.15c-.85.32-1.16,0-1.09-.85.05-.67,0-1.34.05-2,.09-.87.6-1.22,1.39-.85a2.58,2.58,0,0,0,3.32-.66c.13-.14.35-.32.49-.29,1.48.27,2.86-.77,4.46-.2a4,4,0,0,0-1.82-2.07c-.66-.39-1.37-.69-2.05-1.05-.21-.11-.61-.1-.54-.46s.44-.24.69-.28a9.4,9.4,0,0,1,1.19-.11,1.69,1.69,0,0,0,.85-.25c.3-.22.66-.44.45-.88a.64.64,0,0,0-.94-.29c-.71.37-1.2.45-1.16-.6a.45.45,0,0,0-.42-.49c-.95,0-1.72-.66-2.66-.8a2.73,2.73,0,0,1-2.39-2.46,3.94,3.94,0,0,1,1.46-3c.36-.24.63,0,.93.09a.53.53,0,0,0,.69-.24c.18-.32-.11-.39-.3-.5a1.08,1.08,0,0,1-.47-1.13c.06-.73.14-1.46.21-2.19,0-.2.05-.44.25-.52,1-.4.9-1.22.55-1.9-.47-.93.3-1.63.23-2.46,0-.09.3-.24.49-.29a12.93,12.93,0,0,1,5.08-.88,3.73,3.73,0,0,0,1.86-.27c.6-.24.72-.53.18-1-1-.79-2.19-1.19-3.11-2s-2.3-.22-3.33-.86c-.35-.22-.51.34-.62.62-.3.72-.67.8-1.28.32a5.94,5.94,0,0,0-2.75-1.55.7.7,0,0,1-.55-.64,16.5,16.5,0,0,1-.44-3.14c0-8-.06-16-.1-24a19.62,19.62,0,0,1,.51-5.45,6.67,6.67,0,0,0-.16-3.93,3.36,3.36,0,0,1-.08-2,11.26,11.26,0,0,0,.15-4.17,20.48,20.48,0,0,1,.35-5.36,47.27,47.27,0,0,0-.06-5.19c0-.76.22-1,.93-.59.2.12.42.2.62.32.73.45,1.3.71,1.53-.52.16-.8,1-1.16,1.66-1.49A3,3,0,0,0,288.3,486a2.89,2.89,0,0,1,2.92-1.7c.74.06,1,.38.72,1.12a2.37,2.37,0,0,1-1.75,1.49c-1.11.26-1.27,1.35-1.84,2.09a.22.22,0,0,0,.12.33,1.21,1.21,0,0,1,1.19,1.1c0,.15.29,0,.39-.1a1.05,1.05,0,0,0,.15-.77c-.05-.7.28-.88.91-.76.42.08.85.09,1.42.14-.64-.79-.83-1.46.1-2.07.38-.24.22-.74.16-1.12-.15-1-.33-2-.51-3-.1-.58-.09-1.07.65-1.19s.64-.44.42-.94a14.17,14.17,0,0,1-.61-1.69.68.68,0,0,0-.59-.57.72.72,0,0,0-.81.45,2.94,2.94,0,0,0-.32,1.93,1.28,1.28,0,0,1-1,1.66c-.64.19-1.28.34-1.93.51-.13,0-.32.11-.38.05-.95-.83-2.11-.34-3.15-.52a2.72,2.72,0,0,1-2.27-2.67c-.06-3,0-5.92,0-8.89a2.29,2.29,0,0,1,1.69-2.25,35.79,35.79,0,0,1,11.62-2.21,5.2,5.2,0,0,1,1.65.37c1.38.46,2,.07,2.19-1.38.22-2,.38-4,.62-6a11.55,11.55,0,0,1,.65-3,1,1,0,0,0,.06-.58,19.43,19.43,0,0,1,0-7.71,2,2,0,0,1,.77-1.36.7.7,0,0,1,.75-.13c.33.18.06.47,0,.71s-.51.73-.08,1a2,2,0,0,0,1.46,0c.42-.12.34-.54.33-.85a20.62,20.62,0,0,0-.15-4.08A.39.39,0,0,1,304,443c.51-.37.24-.66-.09-.95a1.51,1.51,0,0,1-.21-2.15c.52-.89,1-1.81,1.47-2.73a1.47,1.47,0,0,0-.36-2,1.61,1.61,0,0,1-.5-1.62c.25-1.95.62-3.84,2.6-5-1.25.08-1.73-.74-2.2-1.55-.26-.45-.62-.42-1-.22-.59.31-.79,0-.8-.54,0-.9,0-1.8,0-2.7,0-.66-.21-.95-.91-1-3-.21-6-.48-9-.72a5.43,5.43,0,0,1-1.54-.38,2.73,2.73,0,0,0-4,2.47c-.36,4.51-.65,9-1,13.54-.36,4.91-.7,9.82-1.26,14.71-.33,3-.34,5.92-.52,8.87-.09,1.5-.13,3-.23,4.49s-.66,2.08-2.21,2.05c-4-.09-8.05-.46-12.07-.74-1-.06-1.93-.12-2.88-.25a1.88,1.88,0,0,1-1.9-2.22c0-1.83.14-3.65.24-5.48.17-3,.38-5.91.52-8.87q.62-12.72,1.18-25.43a11.43,11.43,0,0,0-.15-3.78,2,2,0,0,0-2-1.67c-4-.29-8.09-.63-12.14-.93a10.77,10.77,0,0,1-2.53-.55c-.53-.17-.73-.55-.51-1a9.36,9.36,0,0,0,.49-3.43c.22-2.68.32-5.38.47-8.07a3.23,3.23,0,0,1,1-2.6Zm79.89,143.33v0c-5.9,0-11.8,0-17.69,0-1,0-1.37.37-1.36,1.33s-.11,1.8-.13,2.69c-.07,2.3-.29,4.58-.3,6.88s2.84,5.42,5,4.59c3-1.16,6,.34,8.94-.22,0,0,.07,0,.1,0,1.76.16,3.51.43,5.27.46,6.63.1,13.25.13,19.88.2a9.38,9.38,0,0,0,2-.21,6.29,6.29,0,0,0,5.11-5.4,20.74,20.74,0,0,0-.24-5,5.22,5.22,0,0,0-4.13-4.49,22,22,0,0,0-5.82-.82Zm.89-32.81h15a6.42,6.42,0,0,0,6-4.22,3.14,3.14,0,0,0,.25-1.36,8.7,8.7,0,0,0-9-8.43c-2.39,0-4.79-.07-7.19,0-4.89.08-9.79,0-14.69,0-1.8,0-3.6,0-5.4.05-2.88.12-4.58,1.67-5.15,4.52a19.38,19.38,0,0,0-.19,3.88c0,4.08,1.48,5.54,5.56,5.56C330.6,513.07,335.53,513.06,340.46,513.06ZM317.29,460.3c1.92,0,1.67,1.3,1.65,2.47s0,2.06,0,3.09a1,1,0,0,0,1,1.22q9.5,1.95,19,4c.89.19,1.05-.12,1-.9-.18-1.55-.32-3.11-.47-4.66,0-.3-.13-.75.21-.79,1.15-.12.69-.73.48-1.31a1.44,1.44,0,0,1-.12-1.07c.71-1.65.37-3.34.21-5-.05-.58.13-.9.67-1s.78-.38.46-1-.73-1.33.12-1.93a.35.35,0,0,0,0-.46c-.47-.91-.41-2-.79-2.87-.72-1.74-1.17-3.36.62-4.88-1.37.16-1.77.59-1.75,1.71a2.87,2.87,0,0,1-.08,1c-.21.57-.55,1.21-1.13,1.32s-.52-.71-.8-1.07a1.25,1.25,0,0,0-.19-.15c-.52.28-.56,1.33-1.49,1s-.84-1.15-1-1.9a5.08,5.08,0,0,0-1.47.94c-.22.14-.55.4-.69.09-.56-1.28-1.13-.92-1.76-.08-.06.07-.22.16-.25.14-.75-.6-1.87-.1-2.48-.64a1.28,1.28,0,0,0-1.95-.05c-.9.68-.93.64-1.51-.33a1.82,1.82,0,0,1-2.39.85,1.25,1.25,0,0,0-1.2.34,3,3,0,0,0-1.21,2.6c0,.56.15,1.21-.18,1.67a10,10,0,0,0-1.26,3.83,1.43,1.43,0,0,0,.48,1.68c.75.64.44,1.55-.51,1.81C318.14,460,317.74,459.89,317.29,460.3Zm75.63,88-.06.27,4.46,3.17c.55.39,1.22.78,1.3,1.45.16,1.34.88,1.31,1.85,1a3.7,3.7,0,0,1,1-.19c.72,0,.88-.39.78-1.06a2.65,2.65,0,0,1,.22-2.21,32.22,32.22,0,0,1,3.7-3.78c.17-.16.48-.38.57-.08.39,1.26,1.65,1.32,2.52,1.89.45.3,1,.91,1.48.63s.31-1.15.29-1.76c0-1.7-.74-3.32-.58-5,0-.35-.28-.43-.55-.47l-3.95-.6c-.34,0-.65,0-.58.45a3.35,3.35,0,0,0,.46,1.5c.28.33.67-.23,1-.37a2.51,2.51,0,0,1,2.68.51,1.06,1.06,0,0,1,.06,1.38,2.32,2.32,0,0,1-2.52,1,1.58,1.58,0,0,1-.47-.18,4.94,4.94,0,0,0-1.8-.54c-1.51-.29-3-.56-4.51-.88a2.71,2.71,0,0,0-2.47.28,1.4,1.4,0,0,1-1.26.11c-.51-.13-1-.31-1.53-.45-.21-.06-.45-.2-.63.06a1.6,1.6,0,0,0,.86,2.12c.42.09.81.15.78.7s-.45.59-.86.66ZM311.1,491.46l-.26.07c.19.87.38,1.74.59,2.6.09.38.1.85.66.86a1,1,0,0,0,1.11-.44c.35-.52.94-1.16,1.52-1,1,.34,1.16-.13,1.3-.92a1.07,1.07,0,0,1,1.25-.91c.63.11.88.63.7,1.31a2.74,2.74,0,0,0,0,1.58c.34,1,.75,1.13,1.54.38a3.36,3.36,0,0,1,1-.8c.59-.23,1.31-.22,1.45.4.2.8.73.84,1.3,1a14.12,14.12,0,0,1,1.85.39,2.61,2.61,0,0,0,2.83-.68c.37-.33,1-.66.84-1.14s-.84-.45-1.33-.43c-.92,0-1.18-.37-1-1.23.11-.46.36-1-.35-1.25a1.46,1.46,0,0,0-1.81.42,6.88,6.88,0,0,0-.58,1.15c-.2.47-.58.51-1,.46s-.92,0-.87-.45c.12-1.27-.81-1.54-1.64-1.92-.49-.23-.56-.52-.2-.92s.48-.55,0-.83a15.28,15.28,0,0,0-3.12-1.77c-.86-.29-1.35.07-1.45,1a4.72,4.72,0,0,0,.23,1.67c.26,1.18-.07,1.74-1.24,2a3.51,3.51,0,0,0-2,1.25c-.48.61-.83.46-1-.22C311.34,492.54,311.23,492,311.1,491.46Zm99.76,63.67c0,1,.16,1.28.64,1a4.58,4.58,0,0,1,4.4,0c.21.1.61.31.66-.08.11-1,.86-1,1.55-1.25a1.05,1.05,0,0,0,.79-.82c.1-.45-.3-.53-.57-.69a2.9,2.9,0,0,1-1.31-1.92c-.15-.58-.26-1.17-.39-1.75s-.65-.56-1.09-.43c-.6.18-.28.57-.12.87.24.47.52.93.77,1.4.47.9.42,1-.63,1.16a15.08,15.08,0,0,0-3.31.67A1.78,1.78,0,0,0,410.86,555.13ZM307.24,492.71c-.15.9-.47,1.14-1.08.78a.29.29,0,0,0-.47.2c-.14,1.29-.78,2.56-.23,3.89.46,1.11.35,1.43-.78,1.91-.42.19-.88.31-1.3.51a1,1,0,0,0-.52,1.51c.18.39.4.89,1,.71s.88-.6.58-1.26a.63.63,0,0,1,.08-.57c1-.86,1.74-2.19,3.24-2.43.67-.11.89-.38.41-1a3.67,3.67,0,0,1-.73-2.62A2.92,2.92,0,0,0,307.24,492.71Zm-11.9-7.49c1.35,0,1.47.59,1.22,1.5a16.57,16.57,0,0,0-.31,1.87c-.06.33,0,.64.37.66.74,0,1.52.24,2.08-.55a9.29,9.29,0,0,1,1.14-1.12c1-.94,1-1.35.06-2.5-.06.44.2.78.3,1.15a.68.68,0,0,1-.26.87.65.65,0,0,1-.83-.09,2,2,0,0,1-.91-1.37,1.63,1.63,0,0,0-1.34-1.44C296.14,484,295.92,484.65,295.34,485.22ZM322.27,579a.57.57,0,0,1-.44-.32c-.14-.31.11-.5.29-.68l2.65-2.72c.18-.19.44-.36.28-.68a.9.9,0,0,0-.71-.49.93.93,0,0,0-1,1.15c.1.41.2.76-.23,1.06a5,5,0,0,1-2.85,1.32c-.31,0-.68,0-.49.47s.12,1.07.73.82a1.61,1.61,0,0,1,1.4.2c.76.33,1.51.69,2.28,1,.14.06.36.13.46.06s.06-.36,0-.54a1.06,1.06,0,0,0-1.2-.82ZM445,581.29c0-1,0-1.92,0-2.88,0-.25.13-.64-.19-.7a.83.83,0,0,0-.86.56,2.5,2.5,0,0,0-.07.78c-.09,1.61.22,3.24-.32,4.83-.23.67.39.86.87,1,.65.14.56-.41.57-.78C445,583.15,445,582.22,445,581.29Zm3.48-19.46c0,1.14,0,2,0,2.78s-.38,1.95.2,2.23,1.52-.55,2.31-.87l.09,0c.3-.15.38-.35.16-.63ZM281.72,414.25a.84.84,0,0,0-.84.23,14.26,14.26,0,0,0-1.94,2.86.41.41,0,0,0,0,.36c.12.18.3.08.45,0a7.89,7.89,0,0,0,2.92-1.81c.34-.38.92-.81.67-1.32S282.06,414.39,281.72,414.25ZM455,563.16c-.11-.55.27-1.36-.21-1.67s-1.05.37-1.54.65c-1.62.92-1.62,1.05,0,2,.48.27,1,.91,1.48.66S454.92,563.73,455,563.16Zm-35.13-6.41c-.58.16-1.35,0-1.58.49s.51.74.8,1.11a5.87,5.87,0,0,0,.69.72c.23.21.45.6.82.33a4.27,4.27,0,0,0,1.39-1.22.34.34,0,0,0-.11-.25A8.35,8.35,0,0,0,419.91,556.75ZM278.09,434.23a1.68,1.68,0,0,0,.27,1.13c.16.21.42.35.57.08.47-.89,1.23-1.66,1.29-2.74,0-.72-.26-.88-.91-.5A2.33,2.33,0,0,0,278.09,434.23ZM486.76,572.46h0c0-.49,0-1,0-1.49s-.41-.54-.79-.53-.61,0-.54.41a12.6,12.6,0,0,0,.58,2.92c.09.21.19.48.48.44s.27-.33.28-.55C486.77,573.26,486.76,572.86,486.76,572.46ZM288.35,477.32c0,1,.41,2,.74,1.94a2.15,2.15,0,0,0,1.36-1.78c0-.39.09-1-.62-.84S288.39,476.53,288.35,477.32Zm137,87.95c0-.68,0-1.2,0-1.71s.17-.9-.35-1a3.66,3.66,0,0,0-1.86,0c-.26.08-.11.34,0,.49A14.34,14.34,0,0,0,425.39,565.27Zm35.6,5.85a1.52,1.52,0,0,1,.13,2.25c-.14.18-.3.45-.07.62a1.47,1.47,0,0,0,1.34.11.81.81,0,0,0,.56-.85A2.45,2.45,0,0,0,461,571.12Zm-36.78-21.49c.65,0,1.17-.06,1.14-.82s-.76-1.15-1.62-1.14-.59.54-.64,1C423,549.59,423.56,549.7,424.21,549.63Zm-65.88-103.1c.45-.11,1.1,0,1.2-.53a8.91,8.91,0,0,0,0-3.45.5.5,0,0,0-.62-.36c-.31.06-.35.28-.24.53C359.24,444,358.85,445.24,358.33,446.53Zm85.16,121.9c.6-.54,1.19-1,1.76-1.58.32-.3.19-.47-.18-.63-1.57-.7-1.77-.58-1.75,1.13A1.62,1.62,0,0,0,443.49,568.43Zm-44.74-5.08c.16,0,.39.08.5-.14s0-.31-.15-.43c-.31-.38-.64-.75-1-1.12a.47.47,0,0,0-.82,0c-.28.35-.89.61-.79,1.06s.74.27,1.13.4A7.24,7.24,0,0,0,398.75,563.35ZM345,435.38c0-.27,0-.5,0-.73s0-.66-.46-.59-.79,0-.81.56a2.26,2.26,0,0,0,.09.78c.16.52-.19,1.48.63,1.44S344.92,435.89,345,435.38ZM490.55,589.53c.28.46-.2,1.19.4,1.65.14.11,1.73-1.37,1.67-1.6-.22-.77-1-.49-1.5-.68S490.5,589,490.55,589.53Z" transform="translate(-250 -402.54)" fill="#ef1c25"/><path d="M750,561.81a26.14,26.14,0,0,0-1,3.46A38,38,0,0,1,730,589.19a2.56,2.56,0,0,1-3.21-.14,5.16,5.16,0,0,0-.68-.42c-1.13-.65-1.15-.65-1.43.62-.12.57-.39.54-.77.27-.64-.48-1.29-.94-1.91-1.45a1,1,0,0,0-1.27-.08c-.67.43-1.37.82-2,1.23-.21.13-.41.3-.34.56s.37.19.59.18c2.06-.1,2-.1,2,1.94,0,.85-.32,1-1,.62a1.93,1.93,0,0,0-1.81-.17,1.69,1.69,0,0,1-1.54-.14,1.41,1.41,0,0,0-1.89.28c-.41.38-.88.71-1.32,1.06s-.81.32-.91-.38a2.71,2.71,0,0,1,1.7-3.15c1.15-.63,1.15-.63.31-1.65s-.95-1.15-1.85,0c-.31.39-.61.8-.89,1.2-.91,1.28-1.27,1.38-2.67.76s-2.75-1.18-4.11-1.82a.85.85,0,0,0-1.3.41c-.39.73-.85,1.41-1.39,2.31a5.85,5.85,0,0,0,1.94-.93c.42-.22.81-.51,1.27-.09s.81.93.52,1.5c-.76,1.44-1.58,2.84-2.43,4.23a1.76,1.76,0,0,1-1.3.66c-1.26.19-1.5-.11-1.33-1.35a17.82,17.82,0,0,0-.69-7.4c-.34-1.15-1.44-.52-2.17-.55s-.35.64-.33,1a13,13,0,0,0,.57,2.83,4.41,4.41,0,0,1-.88,4.21c-.31.4-.68.75-1,1.16a2.26,2.26,0,0,1-2.82.79,14.28,14.28,0,0,1-5.93-3.19c-.27-.24-.56-.81-1.06-.31s-.89.65-.49,1.32-.16.86-.49,1.16-.79.51-1.18.17a11.63,11.63,0,0,1-2.48-2.57,1,1,0,0,1-.07-1.22c.31-.33.65.13,1,.22s.82.66,1.16.28.1-1-.18-1.47a3.24,3.24,0,0,0-2.59-1.29c-.43,0-.48.33-.49.62a15.86,15.86,0,0,1-.46,2.55,1.91,1.91,0,0,0,.63,2c.25.23.54.55.23.85s-.61-.06-.76-.26c-1.21-1.58-2.52-1.14-4-.44-2,.9-1.62.92-2.83-.8a20.71,20.71,0,0,1-1.4-2.18A4.78,4.78,0,0,1,672,588c.31-.62.21-.88-.47-1s-1.47-.44-2.21-.64c-.56-.15-.7-.41-.36-.93s.79-1.23,1.16-1.86.23-1.09-.51-1.27-1.42-.32-2.36-.54c.41.68.74,1.19,1,1.72.73,1.3.46,2-1,2.51-.44.15-.88.28-1.46.46a5.52,5.52,0,0,0,2.89,1,6.91,6.91,0,0,1,1.15.29,1.2,1.2,0,0,1,.72,1.31,1,1,0,0,1-.86,1,5.33,5.33,0,0,0-3.28,2.74.89.89,0,0,0,0,1.11c.32.34.62,0,.9-.13a3.15,3.15,0,0,1,4,1.69.36.36,0,0,1-.26.53,3.58,3.58,0,0,1-1.94.31A27.17,27.17,0,0,1,664.4,595a5.08,5.08,0,0,1-3.22-3.2,2.17,2.17,0,0,0-.26-.53c0-.08-.15-.12-.32-.25a11.17,11.17,0,0,0-.13,2.56c0,.39.08.85-.37,1.06s-.68-.16-1-.36a9.46,9.46,0,0,1-.87-.66,1.28,1.28,0,0,0-1.62-.19c-1.35.66-2.24.31-3-1a10.41,10.41,0,0,1-.89-2.43c-.13-.53-.31-.9-1-.91s-.74.41-.79.9a.86.86,0,0,1-.81.87,1.77,1.77,0,0,1-1.83-.75,9.56,9.56,0,0,1-1.13-3c-.1-.34-.13-.75-.62-.8s-1.16,0-1.15.83-.55.94-1.22.89-.73-.62-.69-1.16a1.72,1.72,0,0,1,1-1.41c.31-.18.64-.32,1.05-.52-.5-.48-.89-1-1.34,0a.43.43,0,0,1-.45.32c-.29,0-.35-.27-.42-.5s-.09-.45-.18-.67a.86.86,0,0,0-1-.48c-.42,0-.33.43-.37.71s0,.47-.07.7c-.19,1.42-.47,1.55-1.61.7a8.52,8.52,0,0,1-2.2-2.16c-.34-.54-.34-1.15.37-1.26,2.1-.32,4.17-.94,6.32-.72.47,0,.92.2,1.38.25s.77.61.92-.14c.11-.54.06-1-.68-1.2-1.89-.4-3.77-.86-5.65-1.3-.86-.2-1.85-.22-2.09-1.37,0-.19-.23-.22-.41-.14a.52.52,0,0,0-.33.56c.05.73.06,1.46.17,2.19s-.09,1.09-.92,1.11c-2.28,0-2.3,0-1.75-2.16.14-.58.66-1.32-.44-1.58-.06,0-.11-.16-.13-.25a25.32,25.32,0,0,0-1.16-3.71c-.22-.75,0-1,.76-.87a1.57,1.57,0,0,1,1.31,1.09c.18.54.27,1.1.41,1.65.06.27,0,.68.38.7s.39-.33.47-.57a3.93,3.93,0,0,0,.16-3.2,1.5,1.5,0,0,1,.17-1.42c.6-1.2,1.2-2.38,1.78-3.58a3.13,3.13,0,0,0,.33-.93c.07-.44-.19-.68-.62-.75a.56.56,0,0,0-.72.49c0,.17-.07.33-.09.49-.17,1-.21,1-1.08.43l-2.47-1.69a1.49,1.49,0,0,0-1.05-.42c.77,1.15,1.44,2.24,2.2,3.26.48.63.49,1.1-.13,1.6a3.89,3.89,0,0,0-.61.67c-.36.48-.73.45-1.19.11-1.05-.77-2.12-1.5-3.17-2.26-.47-.34-.76-.44-.75.32s.08,1.75-.33,1.86c-.68.17-1-.82-1.42-1.33a30.33,30.33,0,0,1-2.92-3.67c-.22-.35-.58-.71-.24-1.17s.79-.2,1.2-.13a6.81,6.81,0,0,1,2.46,1.06,2.15,2.15,0,0,0,1.89.39c.73-.24,1.49-.43,1-1.56-.3-.76.3-1.38.7-2s1.09-1,.69-1.83a2.56,2.56,0,0,0-2.25-1.44c-.63,0-1.26,0-1.9,0s-1-.22-1-.93,0-1.53,0-2.29.23-.87.85-.53,1.25.62,1.85,1a.72.72,0,0,0,1.15-.23c1.87-2.61,3.56-3.19,6.73-2.38.1,0,.21.09.29.07,1.16-.27,1.79.15,2.57,1.12.5.63,1.78.67,1.82,1.94,0,.18.41.22.63.12s.11-.34,0-.51a1.33,1.33,0,0,1,.59-1.73,6.59,6.59,0,0,1,4.17-1.45c4.13,0,8.26,0,12.39.13a4,4,0,0,1,2.7,1.35c2.12,2.06,4.07,4.3,6.3,6.27a13.42,13.42,0,0,0,7.22,3.38,8.27,8.27,0,0,1,2.89,1c1.2.67,2.43,1.13,3.79.39.34-.19.64,0,.94.16a2.44,2.44,0,0,0,1.31.41c4.22-.21,8.37-.68,12.15-2.82,2.42-1.36,4.43-3.09,5.17-5.91a7.45,7.45,0,0,0-3.67-8.33,27.15,27.15,0,0,0-10.34-3.19c-4.09-.55-8.19-1.05-12.29-1.57a5.74,5.74,0,0,0-3,.21,1.16,1.16,0,0,1-.48.11c-2.81-.19-5.55-.66-7.87-2.39a2,2,0,0,0-2-.52,4.07,4.07,0,0,1-2.73-.15c-4.77-1.48-9.59-2.86-14.06-5.15-5.6-2.87-10.44-6.65-13.76-12.12a30.4,30.4,0,0,1-3.82-11.8,32.86,32.86,0,0,0-.87-4.26c-.49.14-.55.58-.7.91l-12.54,26.78q-2.68,5.75-5.39,11.49c-.63,1.35-1.53,1.44-2.5.29a8.65,8.65,0,0,1-1.34-2.66c-.35-.92-.5-1-1.23-.28a2.46,2.46,0,0,0-.83,1.22c-.16.64,0,1.15.71,1.26s1.07.24,1,1-.12,1.17-.94,1.2c-.49,0-.43.34-.24.63.28.45.62.87.91,1.31a1.49,1.49,0,0,1,.09,1.77c-.22.32-.43.54-.9.36a3,3,0,0,0-1.68,0,.8.8,0,0,0-.63.8.55.55,0,0,0,.54.61c2,.21,2.3,1.8,2.64,3.33a1.16,1.16,0,0,1,.07.4c-.58,2.54.63,5.11-.11,7.65-.07.24,0,.6-.26.7s-.43-.25-.58-.45l-3.21-4.28a5.7,5.7,0,0,0,.15,2.47c.1.92.27,1.84.45,2.75.14.69-.12,1-.8,1l-1.1.07c-.7,0-.68.52-.63,1s.52.4.83.28a4.4,4.4,0,0,1,3.86.27c1,.56,1.52,1.45,1.08,2.16-.8,1.29-1.32,1.84-2.6,1.32a3.73,3.73,0,0,0-3.1-.07,1.59,1.59,0,0,0-1,1.06c-.15.7.21,1,.91.9l2.25-.5a4.51,4.51,0,0,1,2.36.11c1.5.45,1.84,1.8.58,2.82-1.8,1.47-3.76,2.62-6.21,1.46a.54.54,0,0,0-.81.29,11.25,11.25,0,0,0-1,2.25c.59-.45,1.18-.9,1.78-1.33a2.32,2.32,0,0,1,3.48,1.17c.11.35-.12.57-.28.81-.51.71-1,1.39-1.53,2.1-.22.33-.78.63-.42,1.1s.79,1,1.54.92,1.71-.27,2.57-.43c.63-.11,1,.08.9.77,0,.2,0,.4,0,.6,0,1.41,0,1.4-1.45,1.59-.29,0-.58.11-1,.2.7.52,1.28.94,1.85,1.38a1.38,1.38,0,0,1-.31,2.56,6.52,6.52,0,0,0-2.34,1.4,3.36,3.36,0,0,1-4.1,0,1.44,1.44,0,0,0-2.25.16,2.19,2.19,0,0,1-3,.16c-.63-.76-1.1-.83-1.73-.05a1.28,1.28,0,0,1-1.87.24,5.6,5.6,0,0,0-3.63-.77c-1.83.12-3.66.1-5.5.1a5.23,5.23,0,0,0-3.14.76c-.67.45-1,.26-1.19-.51-.06-.32-.18-.64-.27-1-.23-.79-.54-1.41-1.53-.82-.4.24-.65,0-.68-.38-.09-1.49-.76-3.05.55-4.34a3.06,3.06,0,0,0-1.21-.45,2.75,2.75,0,0,1-2-1.7c-.17-.5-.37-.82-1-.79s-.63.57-.7,1a9.18,9.18,0,0,0,.06,3.18,4,4,0,0,0,1.85,2.72c.25.16.58.25.67.56a1.52,1.52,0,0,1-.06,1.44c-.31.39-.74,0-1.09-.12a3,3,0,0,0-3-.08c-.49.31-.56-.11-.59-.46-.2-2.42-.42-4.84-.59-7.26-.44-6-.16-12-.22-18.08a13.24,13.24,0,0,0-.8-4.49c-2-5.6-4-11.21-6-16.83a16.36,16.36,0,0,1-.47-1.83c-.14-.62,0-1,.71-.62s.92.1,1-.66c.31-2.17-2.75-3.57-4.36-2.56-1,.61-1.41.36-1.86-.57a24.35,24.35,0,0,0-1.35-2.22,5.63,5.63,0,0,1-.77-2.35c-.14-1.27.13-1.61,1.4-1.88a.37.37,0,0,0,.37-.35,1.59,1.59,0,0,0-1.89.16c-.54.43-.79.24-1.08-.25-2.1-3.6-4.22-7.19-5.08-11.34a4.12,4.12,0,0,0-1.06-1.9,17.38,17.38,0,0,1-4.27-8.88c-.16-.92,0-1.49,1-1.7a5,5,0,0,0,.84-.31,1,1,0,0,0,.66-1.21c-.11-.62-.63-.57-1-.51-2.84.46-4.32-1-5.32-3.46-1.1-2.61-2.64-5-4-7.49a2.91,2.91,0,0,1-.5-2.55c.12-.31-.1-.58-.27-.82-4.55-6.07-7-13.21-10.24-20-.66-1.38-1.28-2.78-1.92-4.17-.33-.72-.61-1.46,0-2.16a2.27,2.27,0,0,1,2.36-1,3.56,3.56,0,0,0,1.86-.08,8.63,8.63,0,0,1,2.47-.31c5.07,0,10.14-.14,15.2.07a64.67,64.67,0,0,0,7.1,0c2.43-.17,4.87,0,7.3,0a10.89,10.89,0,0,1,3.55.44,1.79,1.79,0,0,0,1.18.09c.94-.35,1.46.14,2,.79,3.41,3.88,6.28,8.07,7,13.33a10.68,10.68,0,0,0,1.77,4.48,23.37,23.37,0,0,1,3.64,8.59c.13.73,0,1.11-.78,1.26s-1,.85-.84,2c.14.78.65,1.34,1.38,1.1,1.54-.49,2,.43,2.64,1.51,1.43,2.56,3,5.06,4.43,7.59.63,1.07.68,1.09,1.71.32a18.16,18.16,0,0,0,5.75-8.14,21,21,0,0,0,1.32-4.6,1,1,0,0,1,1.2-1q1.35,0,2.7,0a.85.85,0,0,1,1,.86c0,.38,0,.85.6.85.3,0,.65,0,.75-.34a1,1,0,0,0-.4-1.23,5,5,0,0,1-2.23-3.07,5.16,5.16,0,0,1,.36-3.22c2.29-5.61,4.78-11.14,7.33-16.64a15.51,15.51,0,0,1,3.2-4.19,1.25,1.25,0,0,1,2.14.07c.72.92,1.24.94,2.11.16a5.15,5.15,0,0,1,3.58-1q15.56,0,31.1,0c2.15,0,3.17.71,3.43,2.19a3.69,3.69,0,0,1-.25,1.86c-.58,1.66-1.18,3.32-1.8,5.06a2,2,0,0,0,1.06-.47c6.25-4,13.22-5.8,20.51-6.75a186.32,186.32,0,0,1,26.9-1.66c6.48.09,13,.1,19.39,1.5a49.63,49.63,0,0,1,32.15,22.24,18.76,18.76,0,0,1,2.84,8.45,4.74,4.74,0,0,1,0,1.19c-.22,1.49-.81,1.93-2.26,1.59a3.89,3.89,0,0,0-2.24.09,6.59,6.59,0,0,1-1.77.26c-6,.24-12.05.45-18.08.68-6.82.26-13.65.52-20.47.84a4.34,4.34,0,0,1-3.49-1.35,21.54,21.54,0,0,0-8.43-5.56,19.11,19.11,0,0,0-11.13-.27,5.84,5.84,0,0,0-4.58,5,2.08,2.08,0,0,0,.67,2.25.94.94,0,0,1,.34,1,2.5,2.5,0,0,0,1.23,2.63,17.91,17.91,0,0,0,6.74,3.16A137.75,137.75,0,0,0,700,513c7.83,1,15.7,1.64,23.45,3.18s14.36,5.69,20,11.21a14,14,0,0,1,3.55,6.18,61.13,61.13,0,0,0,2.94,7.84ZM588.34,563a16.45,16.45,0,0,0,4.43-.41c1.08-.28,1.49-.07,1.67,1a3,3,0,0,1-.31,2.13.9.9,0,0,0,.45,1.46l2.71,1.26c.21.09.45.22.65,0s0-.44-.07-.63a16.67,16.67,0,0,0-1-1.63c-.58-.8-.55-1.37.35-1.94s1.88-1.38,2.81-2.08c.28-.21.53-.41.28-.82s-.57-.34-.93-.13c-.73.4-1.47.78-2.2,1.17-.43.23-.79.27-.88-.32-.11-.78-.66-.92-1.3-.94a21.42,21.42,0,0,1-4.37-.35,1,1,0,0,0-1.27.7A3.09,3.09,0,0,1,588.34,563ZM634,484c0-.17-.06-.43-.11-.69-.24-1.21-.25-1.21-1.41-.73l-4.24,1.75a5.87,5.87,0,0,0-1.05.56,1.15,1.15,0,0,0-.43,1.25c.12.5.55.5.95.55,1.45.2,2.93.3,4,1.48.23.26.46.22.66,0A7.35,7.35,0,0,0,634,484ZM659,579a1.15,1.15,0,0,0-.86-.33.75.75,0,0,1-.79-.91c0-.52,0-1.06.74-1.07,1,0,1.14-.59,1.06-1.39a11.28,11.28,0,0,1,0-1.3c0-.53-.15-.75-.71-.56L655,574.67a1.22,1.22,0,0,0-.93,1.26c0,.73-.08,1.53.7,2a16.43,16.43,0,0,0,3.52,1.39A.68.68,0,0,0,659,579Zm-54.49-91c-.1,0-.31,0-.41.06a22.6,22.6,0,0,1-3,1.64.57.57,0,0,0-.37.64,7.59,7.59,0,0,1-.5,3c-.1.46-.62,1-.22,1.36s.93-.16,1.4-.32c1.18-.39,1.25-.58.76-1.73-1-2.28-1-2.27,1.52-2.51a5.63,5.63,0,0,0,2.93-.87c.38-.28.56-.54,0-.72S605.27,488.24,604.53,488Zm57.59,92.16,3.73-.67c.3,0,.53-.22.42-.54A7.73,7.73,0,0,0,665,576.4a1.29,1.29,0,0,0-1.48-.25c-.48.14-.36.56-.37.92,0,1.15-.08,1.17-1.43,1-.41-.06-1-.41-1.21-.07s.22.84.44,1.21S661.29,580.27,662.12,580.2ZM637.29,474.65c.64,0,1-.31.73-1-.18-.55-.88-1.14-.52-1.61s1.19-.13,1.81-.17c.41,0,.82,0,.85-.59s-.23-.83-.8-.91a4.62,4.62,0,0,0-4.7,2.14c-.14.23-.36.47-.14.72A3.19,3.19,0,0,0,637.29,474.65Zm29,115.73c.54-.06,1-.24,1.12-.67s-.25-.72-.61-.91a2.72,2.72,0,0,0-.56-.22c-1.88-.65-3.77-1.3-5.66-1.93-.33-.11-.77-.43-1-.08s.07.82.27,1.2a1.26,1.26,0,0,0,.73.48l4.65,1.81C665.54,590.2,665.93,590.28,666.24,590.38Zm-6.25-9c-.06-.22.14-.61-.29-.79a2.38,2.38,0,0,0-2.41.94,27.63,27.63,0,0,0-1.22,3.48c-.25.76.07.79.68.63A4.3,4.3,0,0,0,660,581.36Zm-73.57-1.78c.12-.77-.23-.8-.81-.55a1.45,1.45,0,0,0-1,1.49,4.38,4.38,0,0,1-.65,2.85,1.42,1.42,0,0,0,.14,1.77,2.41,2.41,0,0,0,2,.56c.37,0,.35-.34.29-.62A10.17,10.17,0,0,1,586.42,579.58Zm30.1-93.32a4.26,4.26,0,0,1,2,3.36c0,.4.23.6.63.6s.79.06.9-.42a2.91,2.91,0,0,1,2.34-2.29c.18,0,.45-.06.42-.33s-.29-.26-.48-.29l-3.93-.59A3.2,3.2,0,0,0,616.52,486.26Zm34.22,73c.21-.86-.29-1.25-1.22-1.35-.73-.07-1.44-.26-2.16-.37-.29,0-.61-.11-.81.2a1.62,1.62,0,0,0,.83,2.28c.7.2,1.42.31,2.14.44C650.71,560.65,650.74,560.62,650.74,559.23Zm28,30.85c-.49.11-.56.28-.59.43-.34,1.37-.72,1-1.51.49-1.9-1.14-2.08-1-2.26,1.23,0,.49.11.65.56.72.82.13,1.63.3,2.45.46.3.06.63.15.72-.27C678.36,592.16,678.55,591.18,678.77,590.08ZM542.64,511c1.15-.08,1.6-.32,3.08-1.53s1.52-1.24.9-3.06c-.18-.51-.28-1.08-1-1s-.65.69-.67,1.16C544.84,508.46,544.4,510.07,542.64,511Zm58.53,48c-.47-1.51-.53-3.09-.89-4.6a2.73,2.73,0,0,0-1.67-2c-.25-.11-.49-.21-.72.06a1.56,1.56,0,0,0,.54,2.16,1.15,1.15,0,0,1,.85,1.07A4.82,4.82,0,0,0,601.17,559ZM565.58,502.7c.66-.89.66-.89,1.45-.23s1.84.67,2.21-.12a4.89,4.89,0,0,0-.83-3,.67.67,0,0,0-.28-.06C567,499.37,565.46,501.31,565.58,502.7Zm74.56,52.79H637c-.52,0-.71.26-.7.74V559c0,.43.13.71.62.71s.79,0,.88-.58A4.68,4.68,0,0,1,640.14,555.49Zm-44.24-2.88a1.43,1.43,0,0,0,1.62-1.32c.14-.84-.95-2.14-2.1-2.34-.83-.14-.52.74-.79,1.11a2.64,2.64,0,0,0-.24.65c-.52,1.51-.45,1.62,1.16,1.86Zm33.75-62.29a7.49,7.49,0,0,0-1.91,1.09c-.28.2,0,.42.13.59.54.67,1.1,1.32,1.64,2,.44.52.63.26.76-.23.2-.7.41-1.39.61-2.09C631.14,490.76,630.78,490.31,629.65,490.32ZM649.3,570.7c-.08.22-.13.29-.12.33.1.35.2.7.33,1.05.58,1.65.58,1.65-1,2.22,0,0-.07.11-.14.21a2.7,2.7,0,0,0,1.27.7c.54.2,1.16.59,1.67,0a1.87,1.87,0,0,0,.27-2C651.19,572.11,650.1,571.6,649.3,570.7Zm-39.19-80.37c0,.76.41,1.1,1.68,1.54,1,.33,1.5-.14,2-.83.32-.42.31-.69-.22-.89-.69-.25-1.36-.53-2-.8C610.33,488.86,610.14,489,610.11,490.33Zm-56.47,18.43a3.62,3.62,0,0,1,3.14-1.77c.24,0,.53-.07.53-.34,0-1.25,0-2.5,0-3.74-.29.09-.4.19-.42.3A4.66,4.66,0,0,1,554,507C553.23,507.26,553.13,507.89,553.64,508.76Zm50.3,12.31a4.81,4.81,0,0,0,.88,1.87c.31.52.62.45.83-.07.4-1,.76-2,1.13-3,.08-.21.17-.44-.14-.59C605.8,518.92,603.92,520.13,603.94,521.07Zm-13.66,43.56c-.78,0-1.58,0-1.69.88a2.86,2.86,0,0,0,.81,2.37c.34.29.82-.75,1.3-1.12a2.3,2.3,0,0,0,.32-.38c.3-.47,1.13-.88.93-1.3S590.84,564.7,590.28,564.63ZM664,586a3,3,0,0,0,2.17-1.22c.47-.45.43-.76-.08-1.19-1.65-1.34-1.95-1.25-2.42.84-.06.26-.11.52-.18.77C663.3,585.71,663.47,586,664,586Zm23.59,2.52c.3.35.59.26.84.33s.67.18.67.6.27,1.14-.26,1.37c-.88.39-.37.68,0,1s.46.57.71.83.42.6.81.4a.83.83,0,0,0,.43-1,11.92,11.92,0,0,0-1.26-3A1.3,1.3,0,0,0,687.55,588.47Zm-41.42-18.53a23.81,23.81,0,0,0-2.43-2.73.68.68,0,0,0-.43-.19,3.36,3.36,0,0,0-1.3,1.42c0,.28,1.42,1.46,1.62,1.33C644.41,569.24,645.13,569.84,646.13,569.94Zm-1.44,5.27c-.76-.13-1.15.24-1.05,1.11,0,.2,0,.4,0,.6.07.46-.26,1.13.33,1.31s1-.27,1.36-.66a2.6,2.6,0,0,0,.54-.82C646.29,575.66,646,575.2,644.69,575.21Zm4.57,11.42c0,1.33,0,1.33,1.22,1,.42-.12.83-.24,1.24-.38s.78-.2.75-.67-.48-.5-.82-.61-.77-.2-1.16-.29C649.28,585.37,649.27,585.38,649.26,586.63Zm-12-106c-.22-.72-.39-1.35.74-1.61.59-.13.46-1.14.21-1.59s-.65.13-1,.3a2.88,2.88,0,0,0-.77.62c-.44.48-1.34.9-1.17,1.47s1.13.66,1.78.87C637.14,480.7,637.18,480.67,637.28,480.63Zm12.4,96.24c-.46.13-1.14,0-1.25.77s.43,1,1.06,1.14c.2,0,.39.13.58.14.4,0,.88.48,1.19,0s0-.91-.19-1.33A1.39,1.39,0,0,0,649.68,576.87Zm-9.42-12.65a10.67,10.67,0,0,0-1.25-2.79,1.08,1.08,0,0,0-1.17-.34c-.27.06-.34.26-.33.52A2.94,2.94,0,0,0,640.26,564.22Zm-54.82,4.17c0,.5-.07,1,.46,1.08s.72-.28.84-.69.22-.83.31-1.25c.15-.65-.37-.79-.79-.93s-.53.31-.61.64S585.5,568.08,585.44,568.39Zm9.5-12.43c-.35-.28-.09-1.11-.78-.94s-1.5.16-1.56,1.06c0,.37,0,1.13.66,1A2,2,0,0,0,594.94,556ZM632.72,480a3,3,0,0,0-2.66-1.29c-.44,0-.56.26-.56.64s.15.64.57.64Zm-62.27,58.25c.07,1-.28,1.81.44,2.4s1.24.2,2,0A18.9,18.9,0,0,0,570.45,538.29ZM648,565.83c-.26,0-.73-.13-.49.31a4.18,4.18,0,0,0,1.32,1.58c.46.28.79-.45,1.18-.72s.29-.6-.19-.72Z" transform="translate(-250 -402.54)" fill="#ef1c25"/><path d="M391,474.14a4.91,4.91,0,0,0-2.29.65,1.87,1.87,0,0,1-2.14-.24.93.93,0,0,0-.84-.2c-2.28.49-4.52-.07-6.76-.28-2.58-.24-5.16-.61-7.73-.94a7.86,7.86,0,0,1-1.17-.25c-1.61-.5-1.85-.92-1.85-2.59a52.64,52.64,0,0,1,.91-11.62.82.82,0,0,0,0-.49c-.67-1.38-.35-2.79-.13-4.21a64.16,64.16,0,0,0,.4-7.07c.18-4.32.63-8.62.94-12.94.26-3.51.44-7,.69-10.55.24-3.19.45-6.38.83-9.55s1.08-3.66,4.41-3.28c4.33.5,8.68.88,13,1.3a2.47,2.47,0,0,1,1.57.52,1.37,1.37,0,0,0,1.42.15c1-.28,1.07-.24.95.85,0,.25-.22.59.1.71s.4-.26.57-.45a2.62,2.62,0,0,0,.23-.32c.94-1.3.88-1.26,1.73,0a6.58,6.58,0,0,0,3.09,2.1,9.45,9.45,0,0,1,3.58,1.91,7.6,7.6,0,0,1,1.66-3.59c.47-.7.85-.69,1.2,0,1,2.09,2.88,2.83,5,3.28a1.41,1.41,0,0,0,.29,0s.06,0,.13-.09a5.47,5.47,0,0,0-1.13-1.8c-.33-.5-.28-.79.32-.93.42-.09.85-.18,1.27-.3s.91-.07.89.61c0,.27,0,.57.35.63a.58.58,0,0,0,.67-.48c.2-1,.81-1,1.62-.75a10.72,10.72,0,0,0,4.43.5,3.76,3.76,0,0,1,1.29.1,4.32,4.32,0,0,0,2.86,0c1.15-.46,2.4.22,3.58.54a.52.52,0,0,1,.41.61.86.86,0,0,1-.83.73c-.69,0-1.37-.08-2.18-.13a1.62,1.62,0,0,0,1.52.92c.93.1,1.2.59.95,1.45-.13.45-.26.89-.38,1.34a1.76,1.76,0,0,0,.5,1.92c.16.14.46.25.33.54s-.44.24-.7.25a7.73,7.73,0,0,0-1.82-.14c0,.52.43.54.75.67a6.92,6.92,0,0,1,1,.42.88.88,0,0,1,.39,1c-.05.35-.31.48-.62.56l-.58.14c-.28.07-.52.18-.49.52s.31.36.58.41c1,.15,1.16.49.77,1.38a6,6,0,0,1-1.67,2c-.49.44-1.1.1-1.2-.58-.06-.37.12-.79-.22-1.18a3.12,3.12,0,0,0-.76,1.26,1,1,0,0,1-1,.61c-.71,0-1-.24-.77-1s.42-1.51.69-2.46c-1,.53-1.86.93-2.67,1.38s-1.27,0-1.76-.46,0-.72.25-1a1.59,1.59,0,0,1,1.41-.79c.24,0,.58.16.62-.27,0-.26.09-.59-.12-.76s-.45.14-.64.27a1.26,1.26,0,0,1-1.33.12,1.06,1.06,0,0,0-1.14,0c-.4.35.09.65.21,1A2.79,2.79,0,0,1,415,429.4c-.59.19-.94.12-1.07-.58a4.25,4.25,0,0,1,.06-1.67c.07-.3.29-.7-.28-.76s-.8.14-.84.63a8.13,8.13,0,0,0,0,1.1,1,1,0,0,1-.57,1.07A1.17,1.17,0,0,1,411,429c-.72-.57-.88-1.27-.54-2.51-.68.23-.95,1.09-1.79,1a5,5,0,0,0-2.12-.17c.56.44,1,.77,1.42,1.12.26.22.48.57-.08.58-1.88.06-3.82.36-5.55-.73-.38-.24-1.11-.44-.73-1.06a1.14,1.14,0,0,1,1.7-.48l.43.23c0-.91-.58-1-1.18-1.12-1.62-.27-1.62-.27-.74-1.64.27-.42.55-.84.8-1.27.11-.18.37-.39.13-.61a.54.54,0,0,0-.73.08,5.63,5.63,0,0,0-.68.85c-.4.59-.94.73-1.43.25-1-1-2.2-.67-3.39-.65a1.93,1.93,0,0,1-1.83,2.57,8.18,8.18,0,0,0-2.37-.14c.52,1.66.38,2-1.35,2.49a1.38,1.38,0,0,0-1.17,1.45c-.07,1.19-.15,2.39-.14,3.58a3.07,3.07,0,0,0,3,3.13,21.73,21.73,0,0,0,4.84.06,8,8,0,0,1,5.16.8,1,1,0,0,0,.57.11,19,19,0,0,1,7.19.54,2,2,0,0,0,.8,0c4.3-.69,8.56.1,12.83.46,1.14.09,1.59,1,1.85,2,.46,1.75.07,3.51-.07,5.26-.17,2.19-.46,4.36-.73,6.54-.23,1.79-.65,2.09-2.41,2l-18.63-1.27c-3.85-.27-7.7-.55-11.56-.81a7.15,7.15,0,0,0-1.79.07,2.52,2.52,0,0,0-2.05,2.4,17.13,17.13,0,0,0,.19,3.78.7.7,0,0,0,.79.69c4.3.2,8.5,1.2,12.76,1.66s8.49.75,12.73,1.12c2.49.21,5,.41,7.47.63.94.08,1.64.52,1.64,1.53,0,4.09.16,8.2-1.12,12.18-.63,2-1.12,2.32-3.21,2.11-3.94-.39-7.88-.85-11.82-1.2-4.24-.37-8.5-.65-12.74-1-1.37-.1-2.73-.18-4.09-.33C390.27,475.09,390.27,475.05,391,474.14ZM376.77,467a4.22,4.22,0,0,0,.29-.52c.61-1.73.62-1.51,2.22-1.24l.4,0c.7.09.76.4.34.92-.78.95-1.56,1.91-2.3,2.89-.16.2-.68.49-.2.75a.74.74,0,0,0,1.1-.33,3.06,3.06,0,0,0,.16-.68c.24-1.08.78-1.42,1.88-1.19.23,0,.45.11.68.16.69.16,1.08,0,1.05-.82,0-1.1,0-2.2,0-3.3,0-.53-.05-1.08.79-.72.33.14.46-.18.55-.43a2.42,2.42,0,0,0,0-1.85c-.46-1.12-1-2.23-1.47-3.42a3.1,3.1,0,0,0-1,1.93,3.18,3.18,0,0,1-2.4,2.54c-1.24.39-1.48.28-2-.9-.21-.49-.37-1-.58-1.49-.1-.26-.13-.67-.53-.6s-.29.41-.3.67c-.06.77-.41,1.11-1.23,1.07a.81.81,0,0,0-.63,1.33,3.83,3.83,0,0,0,.51.62c.62.58.44,1-.29,1.19s-.93.63-.29,1.21.43,1-.16,1.44a5.72,5.72,0,0,0-.53.45c-.18.15-.25.31,0,.46.43.27,2.26-.22,2.29-.68.09-1.19.81-2.35.19-3.57-.08-.17-.16-.41.05-.54s.39,0,.56.09a1.62,1.62,0,0,1,.79,1.79A8.55,8.55,0,0,0,376.77,467Zm16.48-46,2.08-.12c.34,0,.55-.19.41-.49-.25-.52-.5-1.13-1.12-1.3-1.05-.3-2.13-.49-3.18-.77-.6-.15-.76.08-.78.64A2.4,2.4,0,0,0,393.25,421Zm16.54,4.6c-.8-2-.8-2.06-2.52-2.05-.92,0-1.16-.33-1-1.2a4,4,0,0,0,.17-2.18c-.53.53-1.27.74-1.18,1.59.17,1.51.84,3,.2,4.65C406.61,424.74,408,424.36,409.79,425.63Zm-5.18-5.44c-.47-.33-.73-.53-1-.71-.65-.4-1.3-.81-1.95-1.19a.57.57,0,0,0-.66,0,.17.17,0,0,0,0,.31c1,.36.65,1.07.49,1.74-.14.52,0,.76.57.55S403.62,420.47,404.61,420.19Z" transform="translate(-250 -402.54)" fill="#ef1c25"/><path d="M434.15,475.39a2.62,2.62,0,0,1,0,.29c-.09.61-.93,1.26-.44,1.72.66.62,1.74.56,2.64.76.43.09.34-.29.29-.55-.17-.85-.32-1.7-.53-2.54a1,1,0,0,1,.56-1.22,4,4,0,0,1,3.1-.26c.87.22,1.5.17,1.93-.78a2,2,0,0,1,2.27-1.09c1.18.15,2.37.31,3.56.45a2.18,2.18,0,0,0,1.24-.06c0-.34-.27-.34-.46-.36a.91.91,0,0,1-.93-1,1.07,1.07,0,0,1,.87-1.18,20.64,20.64,0,0,1,2.06-.36A159.38,159.38,0,0,1,466.94,468c4.29-.11,8.59-.18,12.88,0a5.05,5.05,0,0,1,2.56.74,1.73,1.73,0,0,0,2.43-.19.8.8,0,0,1,1.35,0,1.61,1.61,0,0,0,2,.43c1.89-.73,2.81-.2,3.44,1.78.48,1.49.48,1.47,2,1.41.6,0,.92-.2.72-.84-.26-.86.21-.87.85-.78a20.25,20.25,0,0,1,3.08.82c2.49.75,5,1.5,7.45,2.29,1.35.42,1.46.81.69,2-1.14,1.8-1.14,1.8,1,2.13.66.1,1.32.19,2,.31a1.6,1.6,0,0,0,1.24-.22,2.78,2.78,0,0,1,3,0,19.52,19.52,0,0,1,5.27,4.24,6.71,6.71,0,0,0,2.65,1.9c1,.38,1.33,1.29,1.08,2.69-.11.64-.74,1.33-.34,1.87s1.19.2,1.81.32c2.24.45,2.78,1.71,1.54,3.66-1.11,1.74-1.11,1.82,1,2A2.45,2.45,0,0,1,529,496.4c1.14,2.94,2.64,5.75,3.56,8.79.1.34.4.74.15,1s-.75,0-1.12-.07c-.9-.25-1.81-.49-2.68-.81a28.24,28.24,0,0,0-9.19-1.64,22.81,22.81,0,0,1-4.34-.69c-.68-.15-1.19-.14-1.3.72-.08.63-.5.7-1,.58s-1.36-.34-2-.46c-1.32-.23-2.53-.54-2.87-2.14A1.72,1.72,0,0,0,507,500.6a8.63,8.63,0,0,0-5.32-.88,17,17,0,0,1-7.71-.38c-8.1-1.81-16.31-3-24.44-4.61-1.57-.31-3.12-.68-4.72-.85a31.55,31.55,0,0,0-7.07.32,10.89,10.89,0,0,1-3.86-.1q-16.72-3.74-33.46-7.43c-.31-.07-.74,0-.86-.39s.27-.57.5-.78a64.47,64.47,0,0,1,13.09-9.78,6,6,0,0,1,.63-.3A1.1,1.1,0,0,1,434.15,475.39Zm12.29,2.06a5.36,5.36,0,0,0-1.15-1.9,2.14,2.14,0,0,0-.94,1.63.87.87,0,0,0,.87,1A1.29,1.29,0,0,0,446.44,477.45Z" transform="translate(-250 -402.54)" fill="#ef1c25"/></svg>